<svg xmlns="http://www.w3.org/2000/svg" width="664" height="767" fill="none"><path fill="#654e12" d="m5.72 765 17.31-92.3h12.28L52.48 765h-11.4l-3.29-20.31H20.75L17.13 765zm16.77-31.31H35.7l-6.44-38.44h-.34zm49.09 28.97v-12.21q5.3 5.03 10.26 5.03 3.69 0 6.31-2.6a8.5 8.5 0 0 0 2.62-6.26q0-3.15-1.48-7.65-1.47-4.5-7.95-16.6-6.48-12.12-8.42-18.35-1.95-6.24-1.95-11 0-9.25 5.27-15.13 5.26-5.87 13.45-5.87 4.63 0 9.86 2.42v11.14q-4.83-2.82-8.25-2.82-8.92 0-8.92 8.72 0 3.22 1.51 7.75 1.52 4.53 7.98 16.5 6.48 11.97 8.39 18.25 1.9 6.27 1.91 11.1 0 9.4-5.27 15.26t-13.65 5.87a21.4 21.4 0 0 1-11.67-3.55m63.38 2.34v-80.75h-14.09v-11h39.98v11h-14.09V765zm49.35 0v-91.75h9.86q11.8-.01 18.01 6.94 6.2 6.94 6.2 18.48 0 13.08-9.52 19.65 7.38 5.24 12.54 27.84l4.23 18.85h-12.37l-3.55-15.83q-3.8-16.64-6.62-21.16-2.81-4.53-6.98-4.06V765zm11.81-52.04h.54q9.93 0 9.93-13.88 0-14.76-10.46-14.82zm73.37 53.26q-10.87 0-17.71-12.58t-6.84-34.51q0-20.73 6.47-33.91 6.47-13.19 18.08-13.18 11.26 0 17.94 13.15 6.67 13.15 6.67 33.94 0 22.14-7.04 34.6-7.04 12.5-17.57 12.49m-.13-83.18q-5.84 0-8.96 9.6-3.12 9.62-3.12 26.49 0 17.48 3.22 26.78t9.12 9.3q5.64 0 8.89-9.5t3.25-26.58q0-17.35-3.29-26.71-3.27-9.38-9.11-9.38m86.25 65.61v12.4q-6.64 5.18-14.02 5.18-11.8 0-18.25-12.07t-6.44-34.48 6.47-35.02 18.48-12.61q5.77 0 12.68 4.76v11.94q-5.9-5.7-11.81-5.7-7.1 0-10.3 8.34-3.19 8.33-3.19 27.75 0 19.21 3.22 27.65t10.67 8.44q5.11-.01 12.49-6.58M380.08 765v-91.75h11.74v40.38h17.57v-40.38h11.74V765h-11.74v-40.38h-17.57V765zm70.62 0v-91.75h11.81V765zm48.75 0v-80.75h-14.09v-11h39.98v11h-14.09V765zm49.36 0v-91.75h9.86q11.8-.01 18.01 6.94 6.2 6.94 6.2 18.48 0 13.08-9.52 19.65 7.38 5.24 12.54 27.84l4.23 18.85h-12.37l-3.55-15.83q-3.8-16.64-6.62-21.16-2.82-4.53-6.98-4.06V765zm11.8-52.04h.54q9.93 0 9.93-13.88 0-14.76-10.46-14.82zM605.54 765l17.31-92.3h12.28L652.3 765h-11.4l-3.29-20.31h-17.04L616.95 765zm16.77-31.31h13.21l-6.44-38.44h-.34z"/><path fill="url(#paint0_linear_20_2)" d="m65.4 397.04-.4 1c.45-.18.85-.4 1.2-.57z"/><path fill="url(#paint1_linear_20_2)" d="M102.43 606.18c1.61-.45 2.37-1.83 1.91-3.46s-1.99-2.52-3.52-2.06a2.8 2.8 0 0 0-1.86 3.55 2.8 2.8 0 0 0 3.47 1.97"/><path fill="url(#paint2_linear_20_2)" d="m105.88 617.8-8.77-1.35c1.38 1.73 7.06 2.65 8.77 1.35"/><path fill="url(#paint3_linear_20_2)" d="m91.27 585.1-15.16-17.56-.21.19c4.61 6.24 9.57 12.18 15.37 17.38"/><path fill="url(#paint4_linear_20_2)" d="m88.4 615.96.2.23q.25.21.51.38c3.15 1.74 6.37 3.35 9.97 3.88 3.79.56 7.6.95 11.4 1.48 4.4.6 8.81 1.14 13.24.69 4.02-.41 8.02-1.06 12.02-1.68 5.37-.83 10.75-1.66 15.6-4.37 2.44-1.36 5.07-2.5 7.25-4.18 2.88-2.23 5.4-4.91 8.07-7.41.25-.23.46-.52.68-.78a44 44 0 0 0-4.14 3.34 45 45 0 0 1-19.74 10.22c-4.59 1.1-9.25 1.89-13.88 2.82a48 48 0 0 1-16.71.65 91 91 0 0 0-8.99-.94 28 28 0 0 1-10.27-2.51c-1.68-.74-3.4-1.38-5.1-2.07z"/><path fill="url(#paint5_linear_20_2)" d="m109.31 596.23-1.48-.7c.14.79.29 1.52 1.48.7"/><path fill="url(#paint6_linear_20_2)" d="M126.52 619.46c3.65-.74 7.32-1.37 10.97-2.06.24-.05.48-.16.72-.24l.07-.32q-.21-.03-.43-.03c-8.64.97-17.2 2.95-25.99 1.98-.33-.04-.67.1-1.01.15l-.01.28c.47.12.94.27 1.42.36 4.77.94 9.51.85 14.26-.12"/><path fill="url(#paint7_linear_20_2)" d="m75.25 613.28-.21.3c.49 1.1 1.56 1.7 2.6 1.45l-1.17-.82z"/><path fill="url(#paint8_linear_20_2)" d="M66.64 589.18c-.26.02-.48.57-.89 1.1.54.28 1 .65 1.15.56.33-.22.52-.67.76-1.03-.34-.24-.69-.66-1.02-.63"/><path fill="url(#paint9_linear_20_2)" d="M63.5 604.34a14 14 0 0 0 4.06 4.63 9.8 9.8 0 0 0-4.06-4.63"/><path fill="url(#paint10_linear_20_2)" d="M67.99 580.2c.34-.12.57-.55 1.06-1.08-.67-.2-1.13-.5-1.38-.38-.29.14-.51.65-.53 1-.01.16.64.55.85.47"/><path fill="url(#paint11_linear_20_2)" d="m111.83 615.22.42-.11c.12-.41.41-.87.3-1.2-.1-.28-.66-.57-1.02-.56-.65 0-.82.57-.58 1.08.16.32.58.53.88.79"/><path fill="url(#paint12_linear_20_2)" d="m74.45 613.24-2.2-1.5c.15 1.36.81 1.79 2.2 1.5"/><path fill="url(#paint13_linear_20_2)" d="M76.21 604.77c1.22-.34 1.9-1.63 1.54-2.96-.41-1.52-1.32-2.03-2.9-1.64-1.4.35-2.21 1.67-1.82 2.98.36 1.25 1.82 2 3.18 1.62"/><path fill="url(#paint14_linear_20_2)" d="M70.1 505.3c-3.25 7.67-4.77 15.7-5.27 23.99a53.5 53.5 0 0 0 2.87 21.37c.24.69.54 1.36.82 2.03l.31-.11c-.05-.5-.06-.98-.17-1.46-.55-2.5-1.22-4.97-1.65-7.5-.59-3.41-1.39-6.86-1.43-10.3-.09-10 1.47-19.72 5.56-28.94q.14-.37.23-.77l-.33-.15c-.31.62-.67 1.2-.94 1.84"/><path fill="url(#paint15_linear_20_2)" d="M170.67 607.43c-3.37 2.74-7.05 5.12-10.66 7.55-4.93 3.33-10.14 6.19-15.88 7.8-3.23.9-6.61 1.26-9.94 1.79-3.82.6-7.63 1.4-11.48 1.63-3.91.23-7.85-.15-11.78-.23-5.74-.13-11.34-.74-16.69-3.2-4.25-1.95-8.73-3.4-13.11-5.07q-.18-.04-.37-.05l-.13.27c1.09.59 2.14 1.3 3.29 1.75 6.7 2.63 13.3 5.58 20.42 6.95 1.73.33 3.5.8 5.24.77q11.1-.15 22.2-.64c4.4-.2 8.77-.8 12.89-2.53q2.35-.99 4.71-1.93a3 3 0 0 1-.94.75 43 43 0 0 1-11.54 3.99c-6.78 1.28-13.65 1.64-20.53 1.78-6.35.13-12.64-.05-18.6-2.65-.61-.27-1.29-.38-1.93-.6q-6.61-2.18-13.23-4.4-2.06-.71-4.13-1.45l-.11.26c.49.26.96.56 1.47.78q2.12.92 4.27 1.78 6.09 2.41 12.21 4.76c4.13 1.57 8.37 2.76 12.82 2.83 2.87.04 5.74-.02 8.61-.06 6.19-.1 12.38.3 18.48-1.5 7.12-2.1 14.09-4.45 20.13-8.9 4.22-3.11 8.29-6.43 12.51-9.55a35 35 0 0 0 8.09-8.67q.41-.64.79-1.3l-.23-.16q-.49.58-1.01 1.14c-1.92 2.14-3.64 4.52-5.84 6.3"/><path fill="url(#paint16_linear_20_2)" d="M81.46 587.74c-.12-.27-.53-.4-.81-.6l-.44.87.85.56c.14-.3.48-.65.4-.83"/><path fill="url(#paint17_linear_20_2)" d="M124.4 625.49q3.46-.63 6.93-1.12c6.66-1 13.21-2.31 19.38-5.18a60 60 0 0 0 16.46-11.5q-.68.41-1.32.86l-5.81 4.3c-5.4 4-11.28 7.03-17.91 8.3-5.01.97-10.09 1.56-15.13 2.43a54 54 0 0 1-17.68-.07c-4-.62-7.98-1.32-11.97-1.98-.27-.04-.54-.05-1.1-.11 1.82 1.25 3.38 2.3 5.32 2.56 4.43.58 8.85 1.19 13.29 1.68 3.18.35 6.37.42 9.54-.17"/><path fill="url(#paint18_linear_20_2)" d="M33.6 545.13c.77-1.11.95-3.9.39-5.05a9 9 0 0 0-.39 5.05"/><path fill="url(#paint19_linear_20_2)" d="m80.84 487.34-1.52 1.19q.13.14.25.32c.82-.01 1.2-.56 1.27-1.51"/><path fill="url(#paint20_linear_20_2)" d="M77.6 492.7c-.97.17-1.76 1.03-1.75 2.29l2.03-1.97z"/><path fill="url(#paint21_linear_20_2)" d="M170.7 603.72a4.7 4.7 0 0 0 2.29-2.7l-.25-.21-2.4 2.58z"/><path fill="url(#paint22_linear_20_2)" d="M158.66 607.7c-5.08 3.87-11.04 5.76-17.17 7.67 2.96.6 15.99-4.25 17.17-7.67"/><path fill="url(#paint23_linear_20_2)" d="M152.66 609.08q5.02-3.29 9.97-6.65c.54-.36.92-.96 1.37-1.44l-.13-.08-13.88 9.29.15.27c.84-.46 1.73-.86 2.52-1.4"/><path fill="url(#paint24_linear_20_2)" d="m139.49 613.6-3.64.44a2.24 2.24 0 0 0 3.64-.43"/><path fill="url(#paint25_linear_20_2)" d="m171.06 598.47-.33-.34-1.68 1.54.39.4z"/><path fill="url(#paint26_linear_20_2)" d="M121.53 607.33c-.6-.15-1-.38-1.24-.27s-.32.57-.47.87c.31.15.66.47.93.4.25-.04.41-.5.78-1"/><path fill="url(#paint27_linear_20_2)" d="m176.42 594.52-2.62 3.5c1.28-.16 2.71-2.08 2.62-3.5"/><path fill="url(#paint28_linear_20_2)" d="M138.92 609.77q1.22-.39.92-1.65c-.2-.86-.86-1.31-1.63-1.11-.71.18-1.37 1.15-1.22 1.79s1.21 1.19 1.93.97"/><path fill="url(#paint29_linear_20_2)" d="m42.41 524.15-.84 2.54.35.13c.9-.57 1.07-1.23.49-2.67"/><path fill="url(#paint30_linear_20_2)" d="M53.46 591.33c-9.36-14.9-12.55-31.33-12.23-48.91-1.19 2.05-.91 15.36.47 21.98 2.05 9.79 5.81 18.86 11.76 26.93"/><path fill="url(#paint31_linear_20_2)" d="m44.44 558.8-.34-2.91-.5.06.33 2.9z"/><path fill="url(#paint32_linear_20_2)" d="M49.11 534.04c1.08-.32 1.58-1.35 1.24-2.55-.32-1.14-1.4-1.81-2.43-1.52s-1.7 1.56-1.39 2.64a2.1 2.1 0 0 0 2.58 1.43"/><path fill="url(#paint33_linear_20_2)" d="m47.17 554.9-.2-2.54-.32.04c-.42 1.24-.36 1.83.52 2.5"/><path fill="url(#paint34_linear_20_2)" d="m45.63 565.62-.35-1.53c0-.02-.06-.03-.09-.05l-.38.09q.16.78.36 1.55c.02.02.3-.03.46-.06"/><path fill="url(#paint35_linear_20_2)" d="M45.78 582.53c2.64 6.02 6.24 11.5 9.93 16.93.24.35.61.62.92.93l.29-.22a111 111 0 0 1-12.42-22.8 72 72 0 0 1-5.27-25.5q-.25 0-.49.02c-.09.63-.26 1.27-.24 1.9.21 5.26.66 10.52 2.2 15.55 1.39 4.49 3.19 8.88 5.08 13.19"/><path fill="url(#paint36_linear_20_2)" d="m170.02 612.39-.16-.21c-.66.38-1.36.7-1.98 1.13-3.19 2.25-6.31 4.58-9.53 6.77-6.46 4.4-13.91 6.54-21.25 8.8-3.32 1.04-6.89 1.38-10.37 1.79-2.59.3-5.23.16-7.85.28-8.07.37-16.01-.33-23.69-3.01-3.85-1.35-7.71-2.7-11.5-4.22a51 51 0 0 1-7.98-3.77c-3.7-2.3-7.16-5-10.72-7.51l-1.93-1.35c.15.43.16.55.22.6 3.81 3.3 7.48 6.84 12.01 9.13 5.25 2.66 10.69 4.97 16.05 7.42 2.78 1.27 5.57 2.55 8.65 2.87 10.23 1.07 20.46 2.03 30.73.54 3.41-.5 6.88-.85 10.16-1.81 3.27-.96 6.37-2.54 9.5-3.96a71 71 0 0 0 18.8-12.65c.29-.24.56-.55.84-.84"/><path fill="url(#paint37_linear_20_2)" d="m41.52 574.8-1.26-3.3-.31.13c1.28 5.66 2.61 11.3 5.38 16.48 2.73 5.1 5.73 10.05 9.71 14.32q.08-.41-.13-.63a65 65 0 0 1-8.07-13.2c-2.04-4.48-3.57-9.2-5.32-13.8"/><path fill="url(#paint38_linear_20_2)" d="M76.91 623.22c-2.94-1.7-6.1-3.02-9.19-4.47-.48-.23-1.06-.25-1.6-.37l-.07.29c.66.3 1.36.53 1.96.92 2.72 1.8 5.52 3.5 8.09 5.5 2.77 2.15 5.69 3.85 9.11 4.7 1.79.46 3.58.93 5.31 1.58a50 50 0 0 0 11.92 2.66c4.68.54 9.37 1.16 14.1.83 1.47-.1 2.94-.3 4.24-1.3-10.02-.25-19.9-.25-29.36-3.98-4.92-1.95-9.89-3.7-14.51-6.36"/><path fill="url(#paint39_linear_20_2)" d="M55.35 606.59c-1.49-1.7-2.69-3.66-4.19-5.35a30 30 0 0 1-5.54-9.13q-2.62-6.8-4.96-13.72c-1.27-3.73-2.41-7.5-2.51-11.51-.05-2.05-.26-4.1-.43-6.15-.37-4.6-1.1-9.16-.6-13.78l.97-8.45c.05-.47.01-.95.02-1.43l-.43-.07c-.15.48-.38.95-.45 1.44-.36 2.63-.75 5.27-1.01 7.9-.54 5.4.02 10.78.49 16.14.33 3.77.65 7.59 1.5 11.27 1.05 4.52 2.55 8.95 4.05 13.35.89 2.6 1.93 5.2 3.27 7.6 4.2 7.54 9.15 14.52 16.08 19.87.73.57 1.48 1.1 2.23 1.67l.23-.26-1.63-1.74c-2.37-2.54-4.8-5.04-7.09-7.65"/><path fill="url(#paint40_linear_20_2)" d="M64.8 550.13h.29c-.13-.93-.2-1.88-.4-2.8-1.57-7.5-1.75-15-1.2-22.63.67-9.33 4.57-17.48 8.21-25.78.49-1.11 1.07-2.18 1.6-3.27l-.29-.13c-4.72 7.75-8.81 15.73-9.91 24.97-1.21 10-1.6 19.92 1.7 29.64"/><path fill="url(#paint41_linear_20_2)" d="m34.76 533.77.4.07c.91-1.3.66-2.8.75-4.23l-.3-.06z"/><path fill="url(#paint42_linear_20_2)" d="m50.1 513.36-.75 1.83c1.31-.52 1.38-.75.75-1.83"/><path fill="url(#paint43_linear_20_2)" d="M55.07 579.87c.69-1 .6-1.3-.53-1.85z"/><path fill="url(#paint44_linear_20_2)" d="m60.33 597.35 2.14 2.58.3-.21a2.8 2.8 0 0 0-2.44-2.37"/><path fill="url(#paint45_linear_20_2)" d="m57.14 604.3 3.62 3.89c-.3-1.75-2.38-4.02-3.62-3.88"/><path fill="url(#paint46_linear_20_2)" d="M62.89 559.56c.96-.23 1.88-1.84 1.61-2.82s-1.53-1.58-2.7-1.28-1.7 1.16-1.42 2.3c.3 1.2 1.48 2.05 2.51 1.8"/><path fill="url(#paint47_linear_20_2)" d="m62.82 501.36-.34-.25q-.5.67-1 1.3c1.06.1 1.37-.35 1.34-1.05"/><path fill="url(#paint48_linear_20_2)" d="M58.1 508.56c.25-.54.52-1.07.7-1.63.03-.08-.42-.31-.92-.66-.26.75-.49 1.26-.57 1.8-.01.12.51.32.79.49"/><path fill="url(#paint49_linear_20_2)" d="m51.33 582.7-3.97-10.02c-.45 1.5 2.49 9.06 3.97 10.03"/><path fill="url(#paint50_linear_20_2)" d="m50.13 567.15-.56.09.27 1.75.6-.1z"/><path fill="url(#paint51_linear_20_2)" d="M53.15 576.83 50.99 572c-.29 1.92 1.01 4.63 2.16 4.82"/><path fill="url(#paint52_linear_20_2)" d="M54.31 549.37c.16.02.43-.68.81-1.32-.66-.2-1.11-.5-1.35-.37-.36.19-.56.67-.83 1.03.45.24.89.59 1.37.66"/><path fill="url(#paint53_linear_20_2)" d="M52.68 561.39c.12.14.67.15.7.07.31-.67.07-1.2-.54-1.62-.63.48-.61 1.03-.16 1.55"/><path fill="url(#paint54_linear_20_2)" d="M52.88 509.84c.6-.46.79-1.04-.07-1.82l-.56 1.73c.22.03.52.18.63.09"/><path fill="url(#paint55_linear_20_2)" d="M619.54 60.33c-1.51 2.09-.82 4.15.64 6.2a42 42 0 0 0-.64-6.2"/><path fill="url(#paint56_linear_20_2)" d="M424.81 232.05c.38-1.24.83-2.46 1.11-3.71 2.66-11.58 8-21.54 15.82-30.67 4.85-5.66 8.46-12.82 11.02-19.9 2.91-8.04 1.85-16.3-4.96-24.41-.4 3.23-1.09 5.26-.82 7.15 2.38 16.29-2.92 29.4-14.68 40.9-8.3 8.14-9.7 19.15-7.49 30.64"/><path fill="url(#paint57_linear_20_2)" d="M600.31 82.4c1.01.4 1.51.78 1.77.66a56 56 0 0 1 18.95-5.35l.09-2.83c-7.57.82-14.45 2.8-20.81 7.53"/><path fill="url(#paint58_linear_20_2)" d="m596.05 44.6 1.15 1.49c2.28-1.5 4.8-2.74 6.79-4.55a38 38 0 0 1 13.27-7.9q-.67-1.5-1.45-2.94h-7.7c-5.12 3.18-9.05 8.16-12.06 13.9"/><path fill="url(#paint59_linear_20_2)" d="M527.57 197.7c-.13-.2-.05-.13 0 0"/><path fill="url(#paint60_linear_20_2)" d="M599.08 133.18c5.66 13.97 10.09 27.7 16.63 40.33q1.35 2.6 2.88 5.08l-.14-2.23c-.41-9.35.02-18.66-.2-27.94a58 58 0 0 1-7.83-5.61z"/><path fill="url(#paint61_linear_20_2)" d="M507.51 209.63c1.9-7.3 3.32-15.03 2.98-22.48-.37-8.11-5.88-12.74-13.22-13.64 3.22 10 5.78 19.98 3.31 29.57l-5.46-29.66-2.74.84c5.46 15.27 6.23 30.55.62 45.89-1.92 5.25-3.88 10.52-5.39 15.9-2.33 8.28-1.41 18.34 2.08 24.17-.67-13.45 4.38-24.63 10.48-35.54 2.73-4.88 5.96-9.75 7.34-15.05"/><path fill="url(#paint62_linear_20_2)" d="m559.05 232.5-13.02-37.52c-1.53 15.24 2.3 27.93 13.02 37.52"/><path fill="url(#paint63_linear_20_2)" d="m532.83 161.9 16.87 19.14c.56-9.07-7.99-19.35-16.87-19.13"/><path fill="url(#paint64_linear_20_2)" d="M567.99 115.86a84.1 84.1 0 0 0 9.16-70.8l-.83-.02-1.32-.15a73 73 0 0 1 2.9 11.49c3.28 19.87-.32 38.45-10.05 55.97-.98 1.77-1.63 3.72-2.42 5.59l.26-.25-.06.1c.82-.61 1.84-1.11 2.36-1.93"/><path fill="url(#paint65_linear_20_2)" d="M565.45 117.92c-2.51 2.5-5.06 5-7.53 7.55-22.81 23.54-50.32 30.93-81.18 20.86-31.27-10.21-49.23-33.06-52.98-65.7-2.15-18.62 1.43-35.73 9.4-49.92h-2.21a89 89 0 0 0-1.85 3.49c-14.84 29.89-9.51 67.68 13.08 92.67 21.89 24.2 56.55 32.5 87.66 20.29 14.9-5.85 27.96-14.58 35.78-29.35z"/><path fill="url(#paint66_linear_20_2)" d="M348.58 60.24c-2.54-1.1-5.34-2.11-8.05-2.2-6.85-.21-13.71.13-20.56.24 7.92 3.17 15.72 4.57 23.02 7.29 7.38 2.75 14.03 7.53 21.46 10.08 7.09 2.44 14.77 4.32 22.19 4.34 8.43.03 13.83-6.45 13.99-12.97l-27.95 4.93-.54-2.53c14.68-.62 22-2.91 27.32-9.4-17.74 9.1-34.33 7.38-50.88.22"/><path fill="url(#paint67_linear_20_2)" d="M337.06 129.28c12.42-7.73 25.48-12.12 39.79-13.13 8.82-.62 16.99-4.01 22.96-10.73 3.47-3.91 5.72-8.91 8.52-13.42l-1.96-1.38c-1.24.88-2.85 1.5-3.68 2.66-9.51 13.42-22.4 19.15-38.85 19.66-11.17.36-23.15 8.94-26.78 16.34"/><path fill="url(#paint68_linear_20_2)" d="M407.48 30.7h-6.42q-7.7.37-15.37.93a50 50 0 0 0 7.09 3.07c5.93 2.09 11.51 0 14.7-4"/><path fill="url(#paint69_linear_20_2)" d="M600.82 77.52c6.59-2.63 13.15-5.25 20.38-5.38q.11-4.7.18-9.4l-.81-.14c-10.56-1.64-18.92 4.94-19.75 14.92"/><path fill="url(#paint70_linear_20_2)" d="M363.99 191.66c8.8-9.35 20.6-12.38 32.2-15.98 6.86-2.13 14.18-3.96 20.03-7.84 5.51-3.66 10.27-9.28 13.66-15.05 2.85-4.86 2.59-11.05-2.01-16.15-10.1 19.64-10.1 19.64-15.02 22.08l12.36-22.96c-2.13-.72-2.71-.6-2.82-.3-6.96 19.13-20.69 30.79-39.63 37.52-8.68 3.08-14.93 9.84-18.77 18.68"/><path fill="url(#paint71_linear_20_2)" d="M597.47 183.4c4.11 6.6 9.38 12.02 16.34 15.23l.88-2.16c-6.99-7.24-10.96-16.25-14.65-25.57-2.89-7.33-5.97-14.81-10.38-21.25-6.23-9.12-15.29-10.45-22.94-5.15l21.48 16.79-1.04 1.28-20.18-13.31-1.44 1.95c15.23 6.34 23.74 19.05 31.93 32.2"/><path fill="url(#paint72_linear_20_2)" d="m613.39 114.86-.17-1-22.18-6.76-.61 1.73 22.78 6.67z"/><path fill="url(#paint73_linear_20_2)" d="M544.61 132.35A75.5 75.5 0 0 1 501 146.5h.6a72.5 72.5 0 0 0 43.01-14.15"/><path fill="url(#paint74_linear_20_2)" d="m619.45 45.7 1.54.52-.12-.8z"/><path fill="url(#paint75_linear_20_2)" d="M585.82 120.74c1.57.38 3.19.94 4.77.9 9.66-.28 18.07 2.08 25.67 7.06q-.7-3.35-1.46-6.86l-.29-.21c-4.78-3.51-11.49-5-17.55-5.95-3.93-.62-8.28 1.37-13.46 2.39 1.75 2.05 1.98 2.59 2.32 2.67"/><path fill="url(#paint76_linear_20_2)" d="m540.6 519.64-10.48-1.54-.05 3.24 10.46-.36z"/><path fill="url(#paint77_linear_20_2)" d="m512.34 506.79-1.22 2.93-4.37-2.11 1.27 4.69c1.29-2.21 5.17-1.83 4.32-5.51"/><path fill="url(#paint78_linear_20_2)" d="m542.67 514.7-11.9-.77-.01.66 11.92.77z"/><path fill="url(#paint79_linear_20_2)" d="m503.97 508.17 2.46-.71c-1.02-.1-1.85.2-2.46.7"/><path fill="url(#paint80_linear_20_2)" d="m483.23 520.25-10.14-.66-.06.84 10.05.65z"/><path fill="url(#paint81_linear_20_2)" d="m570.18 519.72 2.15 4.12 2.71-1.75c-2.15-.22-1.98-4.03-4.86-2.37"/><path fill="url(#paint82_linear_20_2)" d="M556.48 516.78c-8.87-2.4-11.48-2.62-12.56-1.04l12.6 2.1z"/><path fill="url(#paint83_linear_20_2)" d="m518.71 517.27-.91 2.04-.97-1.8-6.13.8-.15-.6 4.34-1.1-1.74-4.66-1.58 3.63-7.99-7.04a3.3 3.3 0 0 0-.69 2.64c.15.87-.44 1.87-.69 2.8l-.5-.28-.44-4.5c-1.2.43-2.39 1.04-3.62 1.19-.77.09-1.63-.51-2.45-.8l.24-.53-3.82 1.07-.07-2.15c-.63 2.35-3.37 2.16-4.45 3.83-.25.38-1.49.44-2.1.2-2.12-.84-2.86-.38-2.51 1.95.13.83-.37 1.76-.59 2.64l-.75-.21.31-2.6-2.73.84c1.89 3.59 5.4 4.97 9.13 4.77 6.73-.36 13.23.84 19.8 1.75 4.13.58 8.47 1.28 12-2.36z"/><path fill="url(#paint84_linear_20_2)" d="M565.56 523.25q-7.11.86-14.24 1.64-3.35.34-6.72.52c-3.57.2-7.15.52-10.73.46-4.35-.08-8.7-.52-13.05-.8l-.01 1.28c16.52 1.2 32.94.16 49.3-2l-.17-1.71c-1.46.2-2.92.44-4.38.6"/><path fill="url(#paint85_linear_20_2)" d="m493.37 521.95 14.21.92.09-.4-14.17-1.7z"/><path fill="url(#paint86_linear_20_2)" d="M496.7 524.03c-5.92-.52-11.86-.91-17.77-1.53q-12.17-1.28-24.3-2.84c-2.7-.35-5.49-.76-7.99-1.75-2.41-.96-5.05-.04-7.33-1.37-.25-.15-1.02.59-1.54.9l.2.69c4.07-1.03 7.29 3.44 11.52 1.48.16-.07.49.3.76.35 3.56.69 7.1 1.54 10.69 1.99 6.07.75 12.19 1.18 18.27 1.89 2.05.24 4.26 1.73 6.01 1.25 3.59-.97 6.72.62 10.07.72 1.03.03 2.07-.27 3.11-.41l-.08-1c-.55-.13-1.08-.32-1.62-.37"/><path fill="url(#paint87_linear_20_2)" d="M524.13 523.92c8.38.43 16.68.4 25.03-3.17-1.18-.53-1.88-.8-2.52-1.15-.7-.38-1.35-.85-2.02-1.28l-.32.5 1.14 1.83c-10.18 3.42-20.66 1.1-30.73 3.12 1.23.3 2.45.23 3.67.2 1.92-.05 3.84-.15 5.75-.05"/><path fill="url(#paint88_linear_20_2)" d="m470.76 518.65-16.15-2.63-.13.88c5.35 1.17 10.5 3.55 16.28 1.75"/><path fill="url(#paint89_linear_20_2)" d="M421.5 512.17c6.56.95 12.67-2.32 19.14-2.2-6.53-.67-12.9.17-19.14 2.2"/><path fill="url(#paint90_linear_20_2)" d="m465.11 513.7-9.09-.16-.15.87 8.71 2.03z"/><path fill="url(#paint91_linear_20_2)" d="m453.69 509.8.14-.74-11.98.56.08 1.22z"/><path fill="url(#paint92_linear_20_2)" d="M656.23 263.79c-3.13-13.12-.94-26.5.65-39.64 3.22-26.62-3.66-53.28-2.23-80.02.78-14.62-1.26-29.23-2.41-43.81-1.35-17.1-2.53-34.5-.12-51.58a96 96 0 0 1 1.95-10.24c-3.17-9.17-6.05-18.6-6.47-28.07a237 237 0 0 0-58.91-6.62c-40.82.48-85.4 14.84-124.26-2a9 9 0 0 1-2.78-1.8c-36.1-.4-73.81 14.59-109.02 2.6a10 10 0 0 1-2.93-1.53c-8.8 1.88-17.65 3.6-26.67 4.37-25.34 2.1-50.29-.18-75.62-1.11-24.44-.9-48.68 1.9-73.02 3.37-46.79 2.8-94.2-.58-141-3.78a71 71 0 0 1-7.88 3c-5.06-1.32-11.46 1.4-11.63 8.17l-3.21 129.85q-.91 2.8-1.9 5.56.8 2.35 1.65 4.66L3.13 449.92a8 8 0 0 0 1.84 5.58q-.73 2.94-1.56 5.87 1.73.48 2.99 1.65a6 6 0 0 1 1.92 2.57q.87 1.43.8 3.08v1.42a7 7 0 0 1-1.27 4.04l-.23.25a7.2 7.2 0 0 1 1.5 4.25v5.69c0 3.66-2.83 6.54-6.6 7.58.47 3.12.63 6.26.57 9.22-.14 6.96-1.39 13.8-3.09 20.58 2.55 1.18 4.35 3.4 4.16 6.73-.69 12.24-1.11 24.48-1.49 36.72a7 7 0 0 1 3.15 5.96c-.03 24.65-2.31 51.48 4.4 75.99 2.65 3.14 7.21 5.47 15.41 6.27l3.75.36a541 541 0 0 1 43.37-2.7c19.03-.35 36.43 1.3 54.31 5.35l17.44-.23c29.68-.5 55.66-.1 85.73-2.53 3.81 1.47 25.44 1.88 31.8-.03l-6.34-4.93c9.82-3.41 17.12 1.15 12.46 6.4h.01c10.64-.08 18.88-.91 28.21-.62q4.26.82 7.91.7l4.15-.83c1.46-.3 2.89-.54 4.34-.81q1.82-.69 3.5-1.63h.01q.77.4 1.55.75c15.59-2.54 30.76-3.51 46.98-2.21q22.5 1.82 44.99 3.75c24.59 1.56 38.97.44 47.07-.95 4.68-.1 9.39-.35 14.23-.82 5.73.08 12.18 1.5 17.01.72 11.91-1.93 26.48.88 36.45-4.23 7-1.03 15.63.7 22.87-.01 14.97-.98 31.56 1.2 44.38-4.45 1.41-.62 5.17-.55 7.52-.27 13.27 1.34 19.13-5.34 29.48-7.7 9.23-2.84 21.76-4.3 24.46-10.03a48 48 0 0 0 1.55-3.35q0-7.17.51-14.37c-.5-18.07-.54-36.13-.54-54.26q-.01-10.8-.06-21.6c-1.35-4.86-2.62-9.75-3.25-14.73a42 42 0 0 1 3.11-22.22l-.18-31.51c-.09-15.2-.05-30.4.44-45.6q.18-5.1.49-10.21.17-.46.29-1.07c1.5-7.44 1.4-19.63 1.12-27.64q.03-2.77-.04-5.53c-.23-8.62-.98-17.26-1.29-25.9-1.8-1.66-1.24-2.53-.1-3.44-.1-5.34.01-10.68.6-16.02.76-6.9 2.45-13.7 4.04-20.52a11.5 11.5 0 0 0-4.06-2.63c-1.29-.54.28-2.77 1.35-4.1a32 32 0 0 0 5.18-5.26c.48-2.97.84-5.96.97-8.95.41-8.58-5.18-15.4-7.17-23.72M131.45 633.44c-12.05 2.48-24.17 3.07-36.3.2a72 72 0 0 1-23.94-10.54c-4.47-3.03-9.17-5.74-12.93-9.68-5.53-5.8-10.4-12.1-14.07-19.26a31 31 0 0 1-2.19-5.4c-1.72-5.93-3.52-11.86-4.89-17.88-1.57-6.88-2.96-13.81-2.94-20.93q0-.48-.06-.95c-.01-.13-.09-.26-.13-.4q-.15 0-.29-.03c-.07.39-.19.77-.21 1.16a90 90 0 0 0 4.95 34.04c.91 2.58 1.66 5.22 2.71 7.74 1.69 4.09 4.28 7.67 6.89 11.2 4.99 6.74 10.62 12.85 17.39 17.86.15.1.29.26.28.59-1.08-.76-2.19-1.48-3.23-2.28-9.31-7.17-16.28-16.21-21.54-26.68-3.82-7.6-6.29-15.6-8.14-23.83-3.14-14-2.87-27.95 1.61-41.61a75 75 0 0 1 8.92-18.45l3.99-5.4a69 69 0 0 1 9.1-9.11 76 76 0 0 1 13.87-9.05c8.4-4.28 17.4-5.98 26.78-5.86 1.66.02 3.33.13 4.99.2q.29-.02.65.3c-.44.18-.86.38-1.31.5-11.79 3.55-20.4 11.02-26.53 21.53-4.14 7.1-7.2 14.58-7.92 22.86-.4 4.55-.08 9.09.69 13.56.8 4.65 1.75 9.29 3.02 13.83 2.24 7.96 6.48 14.88 11.5 21.42 5.01 6.53 11.3 11.5 17.95 16.18 12.71 8.92 26.91 11.8 42.15 10.79a53 53 0 0 0 12.13-2.15c1.05-.33 2.11-.67 3.18-.9 9.23-1.94 16.44-7.37 23.28-13.46 5-4.44 8.17-10.14 11.17-15.98q.81-1.62 1.55-3.28c.21-.47.37-.96.56-1.44l.47.19q-.16 1.72-.35 3.45a79 79 0 0 1-11.31 32.32c-3.47 5.58-7.85 10.39-12.67 14.78l-8.9 6.78.17.29a74 74 0 0 1-14.69 8.08 86 86 0 0 1-15.41 4.7M63.06 420.32a3.4 3.4 0 0 1 2.68 2.42zm102.57 209.16.24.6a78 78 0 0 1-13.12 8.3zm108.64 17.22 17.37-1.96c-3.76 3.66-8.55 4.28-17.37 1.96m360.99-292.56c-4.41 5.8 13.38 13.26 1.45 17.1-3.05 1.1-5.42 4.8-5.53 7.56l-.02.03c-1.15 2.98 2.34 7.1 5.09 9.76.23.56.91 1.23 2.21 2.04 1 .7-1.64 2.45-2.51 3.72-5.56 6.27 2.24 14.68-6.17 19.72 8.65 5.3 5.57 10.22 4.13 16.02-2.38 6.08-2.32 11.9 3.53 17.63 2.56 5.85-2.97 12.09-3.46 18.03-10.63 25.06-.36 49.58.09 74.54 2.93 6.53 7.05 13.14 4.77 19.96-2.54 5.05-5.2 9.72-4.7 14.99 1.94 16.47 2.06 30.63-8.83 41.44 3.9 1.79 5.08 4.6-.35 6.72l-.48.18c1.55 2.85-1.94 6.49-10.44 6.7q-6.2.17-12.43.29c-15.97 3.86-33.27 6.35-50.92 8.53-3.52 3.68-15.24 3.44-23.53 2.82l-2.9.35a26 26 0 0 1-4.28.15c-4.02.3-8.02-.1-10.02-1.63-11.69-.38-23.2-.43-34.91-.4q-5.55 1.25-10.95 2.72a21 21 0 0 1-10.27.23l-2.1-1.17a13 13 0 0 0-2.76-1.08q-.35-.3-.63-.6h-2.56c-6.45-.78-14.22.5-16.06.89a101 101 0 0 0-13.53-.42c-5.25-.26-11.47-.6-17.53-.94-2.18-.63-5.38-.56-8.79-.5-5-.27-9.43-.53-12.53-.71-29.28-3.31-59.04-3.12-86.93 2.75-8.99-3.22-28.83-3.72-38.76-.44l2 6.74-1.61 1.1c-10.45-4.64-9.62 2.64-18.36 2.18 4.96-3.11 19.33-9.12 4.32-9.92-18.64.52-39.12-2.38-56.03 1.88-9.67-.27-20.2-1.36-30.15-2.78a87 87 0 0 0 17.92-11.87q.47-.4.93-.83a24 24 0 0 1 6.24-2.2c5.75.2 10.91.34 13.5.28 7.84-.2 23.52 1.32 27.67-1.38s24.97-9.68 36.26-12.03 44.7 10.23 56.84 13.4c12.13 3.19 40.89 0 40.89 0l52.25-4.81 15.68 3.44s61.6-1.8 69.82-3.68 8.85-4.58 8.85-4.58h18.76l19.75 9.65h15.18l29.44-2.67q.27.24.53.5h4.18q.22-.47.43-.97l7.97-.72q.11.61-.23 1.69h.44a59 59 0 0 0 10.03-2.62l3-.27-.04-.86c1.89-.8 3.71-1.71 5.33-2.74 3.01-1.91 5.31-4.56 7.76-7.07a2.6 2.6 0 0 1-.97-1.14 53 53 0 0 1-4.32-19.45 485 485 0 0 1-159.35 26.66 484 484 0 0 1-173.61-31.85q-.14 2.96-1.09 5.99c-.97 3.06-3.41 5.64-5.4 8.8l-7.13-1.92.41-1.81 5.14.73c-2.67-2.38-5.21-4.54-2.4-8 .54-.67 2.58-.13 4.25-1.05l-7.17-1.21c-.06-3.31-3.3-6.57-8.76-8.71l-6.77 3.67 1.68-7.77-7.68 3.53-.51-5.2-1.71-.27-.85 6.64-.91.43-1.72-4.51-5.35 4.25c1.82-3.55 2.89-5.62 3.94-7.7q.91-1.77 2.06-3.22a486 486 0 0 1-130.82-93.45 487 487 0 0 1-71.42-90.6 443 443 0 0 1 1.59 27 4 4 0 0 1 3.37.16 3.7 3.7 0 0 1 1.67 2.16c.27.96.07 1.92-.37 2.79a36 36 0 0 1-4.66 6.9c-.13 5.3-.43 10.6-1.01 15.9-.21 1.94-1.49 3.64-3.62 3.62a4 4 0 0 1-1.74-.5v2.99q.79-.46 1.74-.5c1.87-.01 3.76-.23 5.67-.58l-.42 7.06.36.28-.38.05.02-.33-2.74-2.15.43 2.76q-1.47.14-2.95.16a3.4 3.4 0 0 1-1.74-.48v10.3c1.87-.07 3.82 1.08 3.83 3.49.02 6.94.71 13.87 1.43 20.77l.62 5.77q.58.65 1.1 1.36c-1.2.74-2.3 1.54-3.17 2.22l-.01-.02-.13.13c-1.15.9-1.88 1.59-1.88 1.59l-.01.35Q25.28 509 19.25 527.34q-.37 1.16-.71 2.3c-.55-17.44-.03-34.9 3.14-52.28-.83-12.83-1.48-25.56 2.87-38.27-.06-11.38.4-22.83-1.45-34.2-13.42-33.74-2.1-71.2.75-106.26 1.69-20.81-1.45-41.68-.81-62.57.72-23.33 2.75-46.6 2.84-69.95.01-2.61.74-4.68 1.91-6.22.39-10.72.59-21.45.21-32.18-.51-14.3-2.47-28.44-2.56-42.8-.09-14.26.4-28.53.44-42.8.01-3.7 1.67-6.35 4.04-7.94a8 8 0 0 1-.42-2.83v-1.8q.01-2.73 1.39-5.1l1.59-2.04a10 10 0 0 1 4.48-2.6l2.7-.36q2.1-.08 3.92.87a7.6 7.6 0 0 1 3.27 2.09q.33.3.62.65l.21-.03c2.11-2.27 5.16-3.61 9.63-3.45 63.52-2.5 127.02 1.17 190.65-.04 12.92.43 21.26 4.49 34.69 1.29h.01c1.8-1.01 4.55-1.7 8.26-1.72 20.67-.14 40.53-2.83 61.08-3.37 20.05-.53 40.59.76 60.74.67 44.25.2 88.49-.41 132.58-1.2 21.78.84 43.36 1.2 65.11-.28 19.57-.93 17.92 13.6 12.8 19.19-.77 7.63 7.78 13.02 2.17 20.6q.49.58.72 1.47a46.5 46.5 0 0 1 .75 19.02q.47 1.11.39 2.24c1.25 6.94 1.11 13.93 1.47 20.9 1.36 8.12-9.36 15.6-1.32 23.74h.01c1.23 6.59-5.04 13.7-4.69 20.39-.9 10.56 5.29 21.68 6.89 31.93-13.14 18.04-2.77 37.06-.18 55.49.87 14.08 6.96 28.28 8.95 42.16-1.48 10.08 3.17 19.67 6.49 29.4 5.41 10.08-4.43 20.03-12.87 29.32-4.76 7.35 8.92 15.59 3.25 23.37"/><path fill="url(#paint93_linear_20_2)" d="M48.25 277.2c.58 12.39-2.59 24.26-8.27 35.13a454 454 0 0 0 28.16 53.72c10.8-2.74 22.56 2.1 28.74 13.47 4.82 8.85 4.48 17.49-2.07 25.4C177.99 513.7 309.07 584 456.26 584a453 453 0 0 0 163.46-30.38q-.21-7.53-.48-15.07c-.49-14.12-.92-28.26-.4-42.4q.23-6.16.56-12.28a387 387 0 0 1-84.17 27.67c8.51 1 16.87 1.93 25.16 3.22 8.5 1.32 16.93 3.19 25.35 4.98 3.06.65 5.92 1.93 8.03 5.46-3.52 1.02-6.6 2.2-9.79 2.79a133 133 0 0 1-13.5 1.73c-4.46.35-8.96.28-13.44.45-1.15.04-2.28.37-3.43.4-2.12.09-4.35 1.53-6.33-.75-.42-.48-2 0-3.04.1-1.32.14-2.62.48-3.94.48-4.25 0-8.55.3-12.71-.33-2.29-.35-4.81 1.55-6.85-.66-.05-.06-.21-.08-.28-.05-2.87 1.54-5.47-.88-8.28-.54-2.3.28-4.63.35-7.21.53l-.22 1.88c-.27-.3-.54-.44-.57-.63-.28-1.74-1.61-2.52-2.96-1.98-2.01.79-3.62.06-5.43-.36a5.3 5.3 0 0 0-3.2.28c-1.86.87-3.65.17-5.34-.1-3.8-.58-7.5-2.33-11.42-1.01-2.34.79-3.71-1.28-5.65-1.52-3.7-.45-7.41-.77-11.11-1.21-6.53-.77-13.14-1.2-19.57-2.5a424 424 0 0 1-18.28-4.2 387 387 0 0 1-116.89-29.13 389 389 0 0 1-124.07-83.65 389 389 0 0 1-83.65-124.07A388 388 0 0 1 65.94 129.2c0-33.28 4.12-65.92 12.28-97.6-9.44 1.58-18.48 4.32-26.48 8.99-6.25 3.65-10.29 9.9-12.64 17.23q.86 2.6 1.46 5.3c.84 3.96 1.21 8.13.36 12.12a30.5 30.5 0 0 1-3.46 12.86 61 61 0 0 0 4.03 14.42q.65 1.5.88 2.97.7.35 1.31.83.81.51 1.68.95c1.21.62 2.32 1.48 3.31 2.4 2.77 2.63 2.44 6.98 0 9.64-2.43 2.64-6.65 2.45-9.28.28q-.81-.51-1.68-.95c-.35-.18-.68-.42-1.01-.64l-.28.18a30 30 0 0 1 4.83 17.1c-.11 7.28-2.03 14.42-3.64 21.48a96 96 0 0 0-1.67 10.28v57.08c1.26 5.6 2.81 11.16 4.45 16.69 3.51 11.9 7.28 23.89 7.86 36.38"/><path fill="url(#paint94_linear_20_2)" d="M622.06 428.83c-50.16 27.85-106.84 42.67-165.79 42.67-91.44 0-177.4-35.61-242.06-100.26-48.83-48.83-81.08-109.83-93.95-176.15-5.36 2.69-11.08 4.46-17.5 3.9-2.19-.18-4.57 1.59-6.47-.98-.09-.13-1.2.5-2.1.49 2.66-3.06 7.63-4.32 7.53-10.18l3.02 3.65-.8-5.02-1.85.55.27-4.08 4.31 4.87-.62-3.9 4.58-1.26c-1.98-1-3.7-2.06-.94-4.07l2.89 1.1-1.16-3.25-5.81-1.93c-1.92 2.79 1.63 1.79 2.49 2.8l-2.73 2.49-2.31-8.88 1.06-.38 1.26 1.89.59-.2-.68-4.25c1.77 2.4 3.13 4.3 4.58 6.13.12.16.87-.2 1.62-.38l-1.59-2.58 2.26.57.67-2.8-1.77-8.36-1.73.28.82 2.4-.88.23c-.27-1.18-.92-2.46-.68-3.52.17-.77 1.54-1.26 3.03-2.37-1.42.16-1.95.2-3.27.36 3.63-2.82.88-3.93-.69-5.34l.94-.2c-.05-1.04-.07-2.1-.15-3.15-.11-1.46-.13-2.95-.43-4.37-.27-1.27-.85-2.48-1.49-4.24l.75-.88c-1.89-.2-3.54-.35-5.2-.51 2.31-.45 3.14-1.5 2.11-4.23l-4.08.9 1.1 3.5-2.7-.63c3.77 2.68 2.78 5.29.9 8.85l-2.63-16.53-.57.1-.33 4.95-.81-.03-.89-2.71c-.3-1.18 1.45-2.87-.95-3.2-.27-1.71-.19-3.17-.77-4.3-.56-1.07-1.8-1.8-2.91-2.84l-3.1 2.92-.44-.31 1.83-3.05-.44-.32-4.31 4.2-2.69-3.1.44-.47 1.64 1.45 1.39-4.54 1 1.67c2.24-3.36 6.75-4.77 11.22-4.23 2.02.24 4.17-1.02 6.28-1.08 4.15-.11 8.08.43 11.77 1.49a343 343 0 0 1 14.12-87.46H84.7q-2.7.3-5.36.72a389 389 0 0 0-12.43 97.76c0 200.6 152.48 366.24 347.62 387.13l-4.24-1.04c-.1-.02-.22-.01-.29-.06l-4.09-3.12c1.49-.92 2.9-2.47 4.48-2.66 8.3-1.02 16.62-2.05 24.97-2.4 9.4-.37 18.84-.03 28.25.06 1.68.02 2.48-.47 3.14-2.18 3.85-9.96 10.92-17.25 21.01-20.48 10.77-3.44 21.17-1.48 30.44 5.53 7.01 5.3 10.51 12.4 11.75 20.93l2.05.25a386 386 0 0 0 87.47-28.48q.79-14.7 2.11-29.34c.61-6.7 1.35-13.51 1.19-20.24-.03-1.5-.3-2.9-.71-4.27M106.77 143.57l-1.23 5.1-1.16-.18-1.34-3.3zm-6.63 6.3 2.96-.46c-3.42 3.84 1.07 5.8 2.17 8.69.21.56.21 1.2.31 1.8l-.74.1-2.57-4.32q-.45.22-.89.4l-.24 2.9-.81.33c-.11-.51-.32-1.02-.32-1.53.01-2.71.08-5.42.13-7.9m-9.73-18.22-2.6-5.5c3.91.24 4.45 1.13 2.6 5.5"/><path fill="url(#paint95_linear_20_2)" d="M456.27 584.92a453 453 0 0 1-177.39-35.81 454 454 0 0 1-144.86-97.67 459 459 0 0 1-39.95-45.62c-1.84 2.07-3.99 4.04-4.98 6.48-1.71 4.19-4.18 3.29-7.48 2.18l1.24-2.73c-5.75-.6-10.64-5.62-9.24-9.24l9.69 7.8 2.83-1.07-2.47-16.6-5.1-.54 3.86-1.64c-2.75-1.96-7.85-1.92-5.61-7.51l-7.46-4.24c.42 6.89-6.4 1.94-8.53 5L56.58 378l2.82 12.6-10.68-6.17 3.61-.68-2.23-4.52c1.89-1.94 3.65-3.71 5.36-5.53a26.4 26.4 0 0 1 11.58-7.32A454 454 0 0 1 39.4 313.5q-.79 1.47-1.64 2.9a3.5 3.5 0 0 1-1.67 1.49c.18 17.1 1.86 34.22 3.43 51.23l1.01 11.17A489.6 489.6 0 0 0 243.69 566c2.85-3.18 6.63-5.08 11.11-5.92 15.21-2.84 28.26 8.85 28.17 23.02a484 484 0 0 0 173.58 32.03c55.78 0 109.4-9.45 159.34-26.83-.12-7.95 1.37-15.94 3.97-23.83q.05-.15.13-.3-.06-4.73-.2-9.46a454 454 0 0 1-163.52 30.2M69.23 400.69c-.63-.45-1.2-1-1.89-1.32-1.09-.5-2.25-.84-3.76-1.4l.55-1.51-.04-.01c-1.22-.34-2.5-.51-4.18-.83l1.38-7.17 1.59.37-1.47 6.63c1.25-.77 2.08-1.67 2.57-1.51q.46.16.9.43l1.03-2.85 1.43.58-1.25 3.16q.38.31.71.65c.17.16-.26.94-.48 1.49.58-.3 1.02-.51 1.28-.38a8 8 0 0 1 2.34 2.25c.15.2-.45.94-.71 1.42"/><path fill="url(#paint96_linear_20_2)" d="M359.86 131.2c-3.82 1.16-6.83 1.56-9.32 2.92a308 308 0 0 0-18.53 10.98c-12.03 7.66-24.37 11.35-38.33 5-4.83-2.18-10.22-3.14-16.63-5.03l10.33-.7c-2.19-1.91-3.78-3.3-6.72-5.84 3.94.76 6.21 1.02 8.37 1.65 12.17 3.56 22.09-.3 30.24-9.37 4.67-5.21 9.42-10.46 13.24-16.28 7.94-12.1 19.47-16.81 33.2-17.72 3.41-.23 6.82-.5 11.99-.87-15.26-7.6-28.67-14.88-42.6-21.01-12.55-5.52-26.17-5.11-39.34-2.84-10.91 1.88-19.7-.5-27.59-8-2.69-2.56-5.98-4.5-8.68-7.41a212 212 0 0 0-10.78 66.93c0 29.08 5.86 56.8 16.45 82.08 2.58-.24 5.48.48 8.28 1.78 5.86 2.72 9.17 8.35 6.37 15.04a27 27 0 0 1-3.38 6.09c36.68 64.52 106.05 108.14 185.43 108.14 60.22 0 114.68-25.11 153.47-65.4l-.12-.44c-.59-2.05.75-3.72 2.43-4.32q-.06-.68-.08-1.34c-.06-3.11 1.15-5.76 2.95-8.1-1.16-2.81-1.45-6.05-1.58-9-.36-8.27.99-16.51.82-24.78a45 45 0 0 0-.14-2.85c-.1-1.13-.03-.78-.23-1.76q-.21-1.04-.53-2.03l-.04-.15-.1-.2a7 7 0 0 0-.41-.7s.37.3-.15-.13l-.06-.06-.07-.04-.08-.05-.28-.06a7 7 0 0 0-3.28.78c-2.64 1.18-6.42-.8-5.32-4.1l1.01-3.01c-12.59-5.01-22.6-14.25-30.87-26.67-2.84-4.26-7.06-7.6-11.99-12.76l3.8 27.42-.82.3-4.12-7.72c-.73.32-1.13.43-1.13.5.62 11.07-3.01 22.69 3.59 32.98a135 135 0 0 0 11.34 15.1c15.34 17.82 14.72 36.75 3.92 57.59l1.58-15.66-5.88 7.69c5.47-19.61-5.19-31.08-19.94-40.55-.79-.5-1.49-1.15-2.31-1.58-18.29-9.52-28.57-24.18-29.08-45.16-.02-.78-.23-1.56-.43-2.34-5.86 11.17-11.88 22.68-17.94 34.19-8.52 16.19-11.34 33.4-9.7 51.54.86 9.45 1.17 18.96 1.73 28.44l-1.89.3q-.93-2.37-1.91-4.72c-5.51-12.85-10.29-26.07-16.72-38.43-7.94-15.27-9.9-30.75-3.85-46.61 4.35-11.41 5.28-22-.68-32.98-1.14-2.1-.43-5.2-.49-6.23-8.34 9.23-17.63 19.06-26.3 29.4-2.7 3.22-3.74 7.82-5.78 12.32l-1.41-5.95-2.28-.75c-2.43 6.2-5.88 12.2-7.08 18.63-2.08 11.2-2.7 22.69-4.06 34.04-1.19 9.88-4.01 19.12-12.04 26.36 11.49-18.2 4.2-35.7-1.43-53.11-6.53-20.21-7.8-39.44 8.12-56.33 3.04-3.23 5.93-6.6 8.86-9.92 1.37-1.56 2.67-3.18 2.85-3.4-13.12 4.47-27.44 9.5-41.87 14.22-13.27 4.34-24.6 11.83-33.08 22.63-9.13 11.62-20.35 18.17-35.18 18.93l3.33-3.03-3.24-1.37c19.38-1.21 23-16.15 26.46-30.8 4.62-19.6 16.72-32.25 34.8-40.1 4.69-2.02 8.89-5.18 13.31-7.81l-1.06-2.17-8.91 2.07-.33-.73 14.21-8.07-1.11-2.36-18.9 8.03-.32-.73 21.64-12.98-1.29-2.37-22.46 12.29-.6-1 5.87-4.94-.41-2.13-28.69 2.66q-.02-.05 1.96-3.97"/><path fill="url(#paint97_linear_20_2)" d="m272.86 63.7-5.16-6.4c.92 0 1.51-.16 1.69.04 9.62 10.42 19.88 9.08 30.6 1.84 2.89-1.95 6.12-3.41 9.07-5.3 14.64-9.28 30.55-10.43 46.44-5.22 8.94 2.93 17.65 2.3 26.54 2.62 1.03.04 2.09-.58 3.36-.97-.67-.93-.96-1.83-1.48-2-8.14-2.63-12.48-8.77-16.31-15.28a721 721 0 0 1-30.8 1.96c-2.19 2.96-5.91 5.08-9.4 4.84-20.1-1.4-40.22-2.15-60.35-2.72a209 209 0 0 0-7.51 19.35z"/><path fill="url(#paint98_linear_20_2)" d="M286.67 347.68q2.47-.76 5.62-.72c9.04.13 14.8 4.35 18.18 12.3a14 14 0 0 1 1.23 5.78 275 275 0 0 0 144.55 40.85 275 275 0 0 0 161.9-52.45 278 278 0 0 0 2.29-36.57 273 273 0 0 0-.32-13.7 237.4 237.4 0 0 1-101.65 56.89 17.2 17.2 0 0 1 3.86 11.08l-1.92-4.34-7.78 10.53-3.2-5.68-2.15 5.13-19.45-5.3c-.06-1.84.19-3.68.71-5.44a242 242 0 0 1-32.31 2.17A237.5 237.5 0 0 1 287.2 298.2a237.5 237.5 0 0 1-70.02-169.03 239 239 0 0 1 18.64-92.85q-14-.32-28-.74-5.92-.19-11.84-.51a276 276 0 0 0-16.48 94.1c.05 88.74 42.03 167.84 107.17 218.5"/><path fill="url(#paint99_linear_20_2)" d="M142.07 168.62c-2.83 9.6-7.52 17.99-16.13 23.28a83 83 0 0 1-4.65 2.67c30.58 157 169.15 275.9 334.98 275.9a339 339 0 0 0 165.4-42.85c-1.19-3.36-3.04-6.57-4.07-9.95-3.26-10.65 1.01-21.14.8-31.8a3.2 3.2 0 0 1-2.64-1.45c-.47.38-.94.74-1.39.99-3.65 1.99-7.22-2.7-4.39-5.68 2.45-2.6 3.96-5.86 6.05-8.74q.47-2.95.84-5.92a3 3 0 0 1-.25-1.26c.01-2.1.21-4.06.92-5.88q.22-1.47.41-2.94c-46.83 33.68-102.86 51.87-161.69 51.87-51.84 0-101.51-14.13-144.63-40.53-.49 4.39-3.31 8.33-7.48 12.58.15-7.67-2.22-11.21-8.31-7.57-.64-3.56-.46-9.3-1.98-9.8-5.52-1.83-11.61-1.9-18.2-2.72 2.24-4.98 5.12-8.87 9.73-10.7a282 282 0 0 1-25.49-22.6c-52.45-52.44-81.33-122.17-81.33-196.35 0-32.61 5.59-64.36 16.3-94.17-20.32-1.12-40.57-3.2-60.89-4.31h-4.5a340 340 0 0 0-14.32 87.76c20.72 6.58 32.86 30 26.91 50.17"/><path fill="url(#paint100_linear_20_2)" d="M456.27 367.25c11.09 0 21.99-.78 32.68-2.25a17 17 0 0 1 5.25-7.42 17.25 17.25 0 0 1 23.51 1.6 238 238 0 0 0 102.36-57.41c-.56-9.9-1.83-19.77-4.44-29.3-38.96 40.24-93.5 65.29-153.79 65.29-79.62 0-149.22-43.68-186.13-108.33-2.54 2.78-5.9 4-10.58 1.83 1.44-3.54 5.07-8.26 3.91-10.6-1.86-3.76-6.88-5.95-11.12-9.23 1.33-3.35 3.55-5.04 6.19-5.58a213 213 0 0 1-16.43-82.24c0-30.77 6.54-60.04 18.27-86.51q-14.46-.4-28.92-.73a237 237 0 0 0-18.85 92.82C218.2 260.45 325 367.25 456.27 367.25"/><defs><linearGradient id="paint0_linear_20_2" x1="65.41" x2="65.82" y1="398.21" y2="397.21" gradientUnits="userSpaceOnUse"><stop offset="0" stop-color="#674e12"/><stop offset="1" stop-color="#a27c2c"/></linearGradient><linearGradient id="paint1_linear_20_2" x1="100.59" x2="102.75" y1="606.08" y2="600.79" gradientUnits="userSpaceOnUse"><stop offset="0" stop-color="#674e12"/><stop offset="1" stop-color="#a27c2c"/></linearGradient><linearGradient id="paint2_linear_20_2" x1="100.95" x2="101.88" y1="618.44" y2="616.17" gradientUnits="userSpaceOnUse"><stop offset="0" stop-color="#674e12"/><stop offset="1" stop-color="#a27c2c"/></linearGradient><linearGradient id="paint3_linear_20_2" x1="81.64" x2="85.62" y1="581.17" y2="571.42" gradientUnits="userSpaceOnUse"><stop offset="0" stop-color="#674e12"/><stop offset="1" stop-color="#a27c2c"/></linearGradient><linearGradient id="paint4_linear_20_2" x1="119.9" x2="135.58" y1="629.58" y2="591.21" gradientUnits="userSpaceOnUse"><stop offset="0" stop-color="#674e12"/><stop offset="1" stop-color="#a27c2c"/></linearGradient><linearGradient id="paint5_linear_20_2" x1="108.29" x2="108.59" y1="596.55" y2="595.83" gradientUnits="userSpaceOnUse"><stop offset="0" stop-color="#674e12"/><stop offset="1" stop-color="#a27c2c"/></linearGradient><linearGradient id="paint6_linear_20_2" x1="122.17" x2="126.93" y1="623.85" y2="612.2" gradientUnits="userSpaceOnUse"><stop offset="0" stop-color="#674e12"/><stop offset="1" stop-color="#a27c2c"/></linearGradient><linearGradient id="paint7_linear_20_2" x1="76.13" x2="76.55" y1="614.83" y2="613.81" gradientUnits="userSpaceOnUse"><stop offset="0" stop-color="#674e12"/><stop offset="1" stop-color="#a27c2c"/></linearGradient><linearGradient id="paint8_linear_20_2" x1="66.44" x2="67.02" y1="590.7" y2="589.28" gradientUnits="userSpaceOnUse"><stop offset="0" stop-color="#674e12"/><stop offset="1" stop-color="#a27c2c"/></linearGradient><linearGradient id="paint9_linear_20_2" x1="65.01" x2="66.05" y1="607.92" y2="605.38" gradientUnits="userSpaceOnUse"><stop offset="0" stop-color="#674e12"/><stop offset="1" stop-color="#a27c2c"/></linearGradient><linearGradient id="paint10_linear_20_2" x1="67.74" x2="68.3" y1="580.18" y2="578.81" gradientUnits="userSpaceOnUse"><stop offset="0" stop-color="#674e12"/><stop offset="1" stop-color="#a27c2c"/></linearGradient><linearGradient id="paint11_linear_20_2" x1="111.33" x2="111.97" y1="615.01" y2="613.44" gradientUnits="userSpaceOnUse"><stop offset="0" stop-color="#674e12"/><stop offset="1" stop-color="#a27c2c"/></linearGradient><linearGradient id="paint12_linear_20_2" x1="73.06" x2="73.46" y1="613.21" y2="612.25" gradientUnits="userSpaceOnUse"><stop offset="0" stop-color="#674e12"/><stop offset="1" stop-color="#a27c2c"/></linearGradient><linearGradient id="paint13_linear_20_2" x1="74.51" x2="76.38" y1="604.69" y2="600.12" gradientUnits="userSpaceOnUse"><stop offset="0" stop-color="#674e12"/><stop offset="1" stop-color="#a27c2c"/></linearGradient><linearGradient id="paint14_linear_20_2" x1="61.01" x2="78.61" y1="549.62" y2="506.56" gradientUnits="userSpaceOnUse"><stop offset="0" stop-color="#674e12"/><stop offset="1" stop-color="#a27c2c"/></linearGradient><linearGradient id="paint15_linear_20_2" x1="117.39" x2="138.67" y1="636.16" y2="584.11" gradientUnits="userSpaceOnUse"><stop offset="0" stop-color="#674e12"/><stop offset="1" stop-color="#a27c2c"/></linearGradient><linearGradient id="paint16_linear_20_2" x1="80.65" x2="81.08" y1="588.39" y2="587.32" gradientUnits="userSpaceOnUse"><stop offset="0" stop-color="#674e12"/><stop offset="1" stop-color="#a27c2c"/></linearGradient><linearGradient id="paint17_linear_20_2" x1="124.02" x2="139.19" y1="633.4" y2="596.27" gradientUnits="userSpaceOnUse"><stop offset="0" stop-color="#674e12"/><stop offset="1" stop-color="#a27c2c"/></linearGradient><linearGradient id="paint18_linear_20_2" x1="32.9" x2="34.73" y1="544.85" y2="540.38" gradientUnits="userSpaceOnUse"><stop offset="0" stop-color="#674e12"/><stop offset="1" stop-color="#a27c2c"/></linearGradient><linearGradient id="paint19_linear_20_2" x1="79.75" x2="80.46" y1="488.92" y2="487.19" gradientUnits="userSpaceOnUse"><stop offset="0" stop-color="#674e12"/><stop offset="1" stop-color="#a27c2c"/></linearGradient><linearGradient id="paint20_linear_20_2" x1="76.28" x2="77.33" y1="495.16" y2="492.6" gradientUnits="userSpaceOnUse"><stop offset="0" stop-color="#674e12"/><stop offset="1" stop-color="#a27c2c"/></linearGradient><linearGradient id="paint21_linear_20_2" x1="171" x2="172.31" y1="603.84" y2="600.62" gradientUnits="userSpaceOnUse"><stop offset="0" stop-color="#674e12"/><stop offset="1" stop-color="#a27c2c"/></linearGradient><linearGradient id="paint22_linear_20_2" x1="147.51" x2="152.65" y1="617.83" y2="605.24" gradientUnits="userSpaceOnUse"><stop offset="0" stop-color="#674e12"/><stop offset="1" stop-color="#a27c2c"/></linearGradient><linearGradient id="paint23_linear_20_2" x1="154.31" x2="159.62" y1="612.16" y2="599.16" gradientUnits="userSpaceOnUse"><stop offset="0" stop-color="#674e12"/><stop offset="1" stop-color="#a27c2c"/></linearGradient><linearGradient id="paint24_linear_20_2" x1="137.24" x2="138" y1="614.86" y2="613" gradientUnits="userSpaceOnUse"><stop offset="0" stop-color="#674e12"/><stop offset="1" stop-color="#a27c2c"/></linearGradient><linearGradient id="paint25_linear_20_2" x1="169.62" x2="170.48" y1="600.14" y2="598.03" gradientUnits="userSpaceOnUse"><stop offset="0" stop-color="#674e12"/><stop offset="1" stop-color="#a27c2c"/></linearGradient><linearGradient id="paint26_linear_20_2" x1="120.41" x2="120.9" y1="608.28" y2="607.07" gradientUnits="userSpaceOnUse"><stop offset="0" stop-color="#674e12"/><stop offset="1" stop-color="#a27c2c"/></linearGradient><linearGradient id="paint27_linear_20_2" x1="174.43" x2="176.03" y1="598.27" y2="594.36" gradientUnits="userSpaceOnUse"><stop offset="0" stop-color="#674e12"/><stop offset="1" stop-color="#a27c2c"/></linearGradient><linearGradient id="paint28_linear_20_2" x1="137.98" x2="139.06" y1="609.71" y2="607.07" gradientUnits="userSpaceOnUse"><stop offset="0" stop-color="#674e12"/><stop offset="1" stop-color="#a27c2c"/></linearGradient><linearGradient id="paint29_linear_20_2" x1="41.83" x2="42.84" y1="526.79" y2="524.32" gradientUnits="userSpaceOnUse"><stop offset="0" stop-color="#674e12"/><stop offset="1" stop-color="#a27c2c"/></linearGradient><linearGradient id="paint30_linear_20_2" x1="39.65" x2="55.03" y1="585.69" y2="548.06" gradientUnits="userSpaceOnUse"><stop offset="0" stop-color="#674e12"/><stop offset="1" stop-color="#a27c2c"/></linearGradient><linearGradient id="paint31_linear_20_2" x1="43.49" x2="44.55" y1="558.68" y2="556.08" gradientUnits="userSpaceOnUse"><stop offset="0" stop-color="#674e12"/><stop offset="1" stop-color="#a27c2c"/></linearGradient><linearGradient id="paint32_linear_20_2" x1="47.71" x2="49.28" y1="533.95" y2="530.11" gradientUnits="userSpaceOnUse"><stop offset="0" stop-color="#674e12"/><stop offset="1" stop-color="#a27c2c"/></linearGradient><linearGradient id="paint33_linear_20_2" x1="46.51" x2="47.38" y1="554.63" y2="552.51" gradientUnits="userSpaceOnUse"><stop offset="0" stop-color="#674e12"/><stop offset="1" stop-color="#a27c2c"/></linearGradient><linearGradient id="paint34_linear_20_2" x1="44.94" x2="45.51" y1="565.58" y2="564.17" gradientUnits="userSpaceOnUse"><stop offset="0" stop-color="#674e12"/><stop offset="1" stop-color="#a27c2c"/></linearGradient><linearGradient id="paint35_linear_20_2" x1="40.57" x2="55.07" y1="593.82" y2="558.34" gradientUnits="userSpaceOnUse"><stop offset="0" stop-color="#674e12"/><stop offset="1" stop-color="#a27c2c"/></linearGradient><linearGradient id="paint36_linear_20_2" x1="107.11" x2="124.02" y1="634.81" y2="593.45" gradientUnits="userSpaceOnUse"><stop offset="0" stop-color="#674e12"/><stop offset="1" stop-color="#a27c2c"/></linearGradient><linearGradient id="paint37_linear_20_2" x1="43.18" x2="51.89" y1="597.57" y2="576.26" gradientUnits="userSpaceOnUse"><stop offset="0" stop-color="#674e12"/><stop offset="1" stop-color="#a27c2c"/></linearGradient><linearGradient id="paint38_linear_20_2" x1="90.86" x2="94.7" y1="632.31" y2="622.9" gradientUnits="userSpaceOnUse"><stop offset="0" stop-color="#674e12"/><stop offset="1" stop-color="#a27c2c"/></linearGradient><linearGradient id="paint39_linear_20_2" x1="38.8" x2="62.85" y1="606.01" y2="547.19" gradientUnits="userSpaceOnUse"><stop offset="0" stop-color="#674e12"/><stop offset="1" stop-color="#a27c2c"/></linearGradient><linearGradient id="paint40_linear_20_2" x1="58.25" x2="78.55" y1="547.45" y2="497.78" gradientUnits="userSpaceOnUse"><stop offset="0" stop-color="#674e12"/><stop offset="1" stop-color="#a27c2c"/></linearGradient><linearGradient id="paint41_linear_20_2" x1="34.61" x2="36.23" y1="533.71" y2="529.75" gradientUnits="userSpaceOnUse"><stop offset="0" stop-color="#674e12"/><stop offset="1" stop-color="#a27c2c"/></linearGradient><linearGradient id="paint42_linear_20_2" x1="49.7" x2="50.45" y1="515.33" y2="513.5" gradientUnits="userSpaceOnUse"><stop offset="0" stop-color="#674e12"/><stop offset="1" stop-color="#a27c2c"/></linearGradient><linearGradient id="paint43_linear_20_2" x1="54.56" x2="55.14" y1="579.66" y2="578.26" gradientUnits="userSpaceOnUse"><stop offset="0" stop-color="#674e12"/><stop offset="1" stop-color="#a27c2c"/></linearGradient><linearGradient id="paint44_linear_20_2" x1="61.19" x2="61.83" y1="599.4" y2="597.85" gradientUnits="userSpaceOnUse"><stop offset="0" stop-color="#674e12"/><stop offset="1" stop-color="#a27c2c"/></linearGradient><linearGradient id="paint45_linear_20_2" x1="58.53" x2="59.43" y1="607.28" y2="605.09" gradientUnits="userSpaceOnUse"><stop offset="0" stop-color="#674e12"/><stop offset="1" stop-color="#a27c2c"/></linearGradient><linearGradient id="paint46_linear_20_2" x1="61.55" x2="63.13" y1="559.35" y2="555.47" gradientUnits="userSpaceOnUse"><stop offset="0" stop-color="#674e12"/><stop offset="1" stop-color="#a27c2c"/></linearGradient><linearGradient id="paint47_linear_20_2" x1="61.94" x2="62.54" y1="502.6" y2="501.13" gradientUnits="userSpaceOnUse"><stop offset="0" stop-color="#674e12"/><stop offset="1" stop-color="#a27c2c"/></linearGradient><linearGradient id="paint48_linear_20_2" x1="57.63" x2="58.4" y1="508.36" y2="506.47" gradientUnits="userSpaceOnUse"><stop offset="0" stop-color="#674e12"/><stop offset="1" stop-color="#a27c2c"/></linearGradient><linearGradient id="paint49_linear_20_2" x1="47.87" x2="50.82" y1="581.3" y2="574.09" gradientUnits="userSpaceOnUse"><stop offset="0" stop-color="#674e12"/><stop offset="1" stop-color="#a27c2c"/></linearGradient><linearGradient id="paint50_linear_20_2" x1="49.66" x2="50.35" y1="568.91" y2="567.24" gradientUnits="userSpaceOnUse"><stop offset="0" stop-color="#674e12"/><stop offset="1" stop-color="#a27c2c"/></linearGradient><linearGradient id="paint51_linear_20_2" x1="51.37" x2="52.76" y1="576.12" y2="572.73" gradientUnits="userSpaceOnUse"><stop offset="0" stop-color="#674e12"/><stop offset="1" stop-color="#a27c2c"/></linearGradient><linearGradient id="paint52_linear_20_2" x1="53.71" x2="54.3" y1="549.17" y2="547.71" gradientUnits="userSpaceOnUse"><stop offset="0" stop-color="#674e12"/><stop offset="1" stop-color="#a27c2c"/></linearGradient><linearGradient id="paint53_linear_20_2" x1="52.69" x2="53.27" y1="561.41" y2="560" gradientUnits="userSpaceOnUse"><stop offset="0" stop-color="#674e12"/><stop offset="1" stop-color="#a27c2c"/></linearGradient><linearGradient id="paint54_linear_20_2" x1="52.58" x2="53.27" y1="509.87" y2="508.19" gradientUnits="userSpaceOnUse"><stop offset="0" stop-color="#674e12"/><stop offset="1" stop-color="#a27c2c"/></linearGradient><linearGradient id="paint55_linear_20_2" x1="23.16" x2="660.23" y1="660.13" y2="23.06" gradientUnits="userSpaceOnUse"><stop offset="0" stop-color="#ee4036"/><stop offset="1" stop-color="#faaf40"/></linearGradient><linearGradient id="paint56_linear_20_2" x1="416.4" x2="456.22" y1="227.19" y2="158.22" gradientUnits="userSpaceOnUse"><stop offset="0" stop-color="#674e12"/><stop offset="1" stop-color="#a27c2c"/></linearGradient><linearGradient id="paint57_linear_20_2" x1="607.06" x2="615.53" y1="86.31" y2="71.65" gradientUnits="userSpaceOnUse"><stop offset="0" stop-color="#674e12"/><stop offset="1" stop-color="#a27c2c"/></linearGradient><linearGradient id="paint58_linear_20_2" x1="601.25" x2="612.57" y1="48.43" y2="28.83" gradientUnits="userSpaceOnUse"><stop offset="0" stop-color="#674e12"/><stop offset="1" stop-color="#a27c2c"/></linearGradient><linearGradient id="paint59_linear_20_2" x1="527.52" x2="527.55" y1="197.66" y2="197.6" gradientUnits="userSpaceOnUse"><stop offset="0" stop-color="#674e12"/><stop offset="1" stop-color="#a27c2c"/></linearGradient><linearGradient id="paint60_linear_20_2" x1="601.44" x2="616.23" y1="168.68" y2="143.07" gradientUnits="userSpaceOnUse"><stop offset="0" stop-color="#674e12"/><stop offset="1" stop-color="#a27c2c"/></linearGradient><linearGradient id="paint61_linear_20_2" x1="472.09" x2="512.26" y1="250.05" y2="180.48" gradientUnits="userSpaceOnUse"><stop offset="0" stop-color="#674e12"/><stop offset="1" stop-color="#a27c2c"/></linearGradient><linearGradient id="paint62_linear_20_2" x1="546.04" x2="559.04" y1="224.99" y2="202.48" gradientUnits="userSpaceOnUse"><stop offset="0" stop-color="#674e12"/><stop offset="1" stop-color="#a27c2c"/></linearGradient><linearGradient id="paint63_linear_20_2" x1="539.23" x2="544.22" y1="174.99" y2="166.35" gradientUnits="userSpaceOnUse"><stop offset="0" stop-color="#674e12"/><stop offset="1" stop-color="#a27c2c"/></linearGradient><linearGradient id="paint64_linear_20_2" x1="553.73" x2="588.22" y1="111.2" y2="51.46" gradientUnits="userSpaceOnUse"><stop offset="0" stop-color="#674e12"/><stop offset="1" stop-color="#a27c2c"/></linearGradient><linearGradient id="paint65_linear_20_2" x1="459.58" x2="500.87" y1="141.3" y2="69.8" gradientUnits="userSpaceOnUse"><stop offset="0" stop-color="#674e12"/><stop offset="1" stop-color="#a27c2c"/></linearGradient><linearGradient id="paint66_linear_20_2" x1="352.78" x2="371.9" y1="77.21" y2="44.11" gradientUnits="userSpaceOnUse"><stop offset="0" stop-color="#674e12"/><stop offset="1" stop-color="#a27c2c"/></linearGradient><linearGradient id="paint67_linear_20_2" x1="355.7" x2="389.77" y1="140.04" y2="81.04" gradientUnits="userSpaceOnUse"><stop offset="0" stop-color="#674e12"/><stop offset="1" stop-color="#a27c2c"/></linearGradient><linearGradient id="paint68_linear_20_2" x1="393.67" x2="399.51" y1="36.23" y2="26.1" gradientUnits="userSpaceOnUse"><stop offset="0" stop-color="#674e12"/><stop offset="1" stop-color="#a27c2c"/></linearGradient><linearGradient id="paint69_linear_20_2" x1="606.56" x2="618.09" y1="80.83" y2="60.85" gradientUnits="userSpaceOnUse"><stop offset="0" stop-color="#674e12"/><stop offset="1" stop-color="#a27c2c"/></linearGradient><linearGradient id="paint70_linear_20_2" x1="380.16" x2="419.95" y1="200.99" y2="132.07" gradientUnits="userSpaceOnUse"><stop offset="0" stop-color="#674e12"/><stop offset="1" stop-color="#a27c2c"/></linearGradient><linearGradient id="paint71_linear_20_2" x1="584.37" x2="600.71" y1="181.79" y2="153.49" gradientUnits="userSpaceOnUse"><stop offset="0" stop-color="#674e12"/><stop offset="1" stop-color="#a27c2c"/></linearGradient><linearGradient id="paint72_linear_20_2" x1="600.27" x2="603.78" y1="114.5" y2="108.41" gradientUnits="userSpaceOnUse"><stop offset="0" stop-color="#674e12"/><stop offset="1" stop-color="#a27c2c"/></linearGradient><linearGradient id="paint73_linear_20_2" x1="514.3" x2="531.32" y1="154.17" y2="124.68" gradientUnits="userSpaceOnUse"><stop offset="0" stop-color="#674e12"/><stop offset="1" stop-color="#a27c2c"/></linearGradient><linearGradient id="paint74_linear_20_2" x1="620.14" x2="620.61" y1="46.1" y2="45.29" gradientUnits="userSpaceOnUse"><stop offset="0" stop-color="#674e12"/><stop offset="1" stop-color="#a27c2c"/></linearGradient><linearGradient id="paint75_linear_20_2" x1="597.5" x2="604.35" y1="127.5" y2="115.62" gradientUnits="userSpaceOnUse"><stop offset="0" stop-color="#674e12"/><stop offset="1" stop-color="#a27c2c"/></linearGradient><linearGradient id="paint76_linear_20_2" x1="533.23" x2="536.6" y1="523.16" y2="517.33" gradientUnits="userSpaceOnUse"><stop offset="0" stop-color="#674e12"/><stop offset="1" stop-color="#a27c2c"/></linearGradient><linearGradient id="paint77_linear_20_2" x1="507.36" x2="510.83" y1="511.92" y2="505.91" gradientUnits="userSpaceOnUse"><stop offset="0" stop-color="#674e12"/><stop offset="1" stop-color="#a27c2c"/></linearGradient><linearGradient id="paint78_linear_20_2" x1="535.26" x2="538.19" y1="517.18" y2="512.11" gradientUnits="userSpaceOnUse"><stop offset="0" stop-color="#674e12"/><stop offset="1" stop-color="#a27c2c"/></linearGradient><linearGradient id="paint79_linear_20_2" x1="504.74" x2="505.66" y1="508.61" y2="507.01" gradientUnits="userSpaceOnUse"><stop offset="0" stop-color="#674e12"/><stop offset="1" stop-color="#a27c2c"/></linearGradient><linearGradient id="paint80_linear_20_2" x1="476.78" x2="479.41" y1="522.59" y2="518.04" gradientUnits="userSpaceOnUse"><stop offset="0" stop-color="#674e12"/><stop offset="1" stop-color="#a27c2c"/></linearGradient><linearGradient id="paint81_linear_20_2" x1="571.28" x2="573.11" y1="523.22" y2="520.04" gradientUnits="userSpaceOnUse"><stop offset="0" stop-color="#674e12"/><stop offset="1" stop-color="#a27c2c"/></linearGradient><linearGradient id="paint82_linear_20_2" x1="549.11" x2="551.8" y1="518.74" y2="514.07" gradientUnits="userSpaceOnUse"><stop offset="0" stop-color="#674e12"/><stop offset="1" stop-color="#a27c2c"/></linearGradient><linearGradient id="paint83_linear_20_2" x1="494.29" x2="504.74" y1="525.19" y2="507.09" gradientUnits="userSpaceOnUse"><stop offset="0" stop-color="#674e12"/><stop offset="1" stop-color="#a27c2c"/></linearGradient><linearGradient id="paint84_linear_20_2" x1="538.59" x2="552.48" y1="536.61" y2="512.55" gradientUnits="userSpaceOnUse"><stop offset="0" stop-color="#674e12"/><stop offset="1" stop-color="#a27c2c"/></linearGradient><linearGradient id="paint85_linear_20_2" x1="498.69" x2="502.04" y1="525.02" y2="519.22" gradientUnits="userSpaceOnUse"><stop offset="0" stop-color="#674e12"/><stop offset="1" stop-color="#a27c2c"/></linearGradient><linearGradient id="paint86_linear_20_2" x1="461.98" x2="474.35" y1="531.99" y2="510.56" gradientUnits="userSpaceOnUse"><stop offset="0" stop-color="#674e12"/><stop offset="1" stop-color="#a27c2c"/></linearGradient><linearGradient id="paint87_linear_20_2" x1="526.98" x2="536.89" y1="530.84" y2="513.67" gradientUnits="userSpaceOnUse"><stop offset="0" stop-color="#674e12"/><stop offset="1" stop-color="#a27c2c"/></linearGradient><linearGradient id="paint88_linear_20_2" x1="460.82" x2="464.13" y1="520.56" y2="514.83" gradientUnits="userSpaceOnUse"><stop offset="0" stop-color="#674e12"/><stop offset="1" stop-color="#a27c2c"/></linearGradient><linearGradient id="paint89_linear_20_2" x1="428.2" x2="433.94" y1="516.04" y2="506.09" gradientUnits="userSpaceOnUse"><stop offset="0" stop-color="#674e12"/><stop offset="1" stop-color="#a27c2c"/></linearGradient><linearGradient id="paint90_linear_20_2" x1="459.45" x2="462.07" y1="516.47" y2="511.94" gradientUnits="userSpaceOnUse"><stop offset="0" stop-color="#674e12"/><stop offset="1" stop-color="#a27c2c"/></linearGradient><linearGradient id="paint91_linear_20_2" x1="445.82" x2="449.57" y1="513.1" y2="506.6" gradientUnits="userSpaceOnUse"><stop offset="0" stop-color="#674e12"/><stop offset="1" stop-color="#a27c2c"/></linearGradient><linearGradient id="paint92_linear_20_2" x1="172.19" x2="487.01" y1="715.04" y2="-55.21" gradientUnits="userSpaceOnUse"><stop offset="0" stop-color="#674e12"/><stop offset="1" stop-color="#a27c2c"/></linearGradient><linearGradient id="paint93_linear_20_2" x1="237.26" x2="389.39" y1="531" y2="158.78" gradientUnits="userSpaceOnUse"><stop offset="0" stop-color="#674e12"/><stop offset="1" stop-color="#a27c2c"/></linearGradient><linearGradient id="paint94_linear_20_2" x1="262.17" x2="397.02" y1="470.48" y2="140.55" gradientUnits="userSpaceOnUse"><stop offset="0" stop-color="#674e12"/><stop offset="1" stop-color="#a27c2c"/></linearGradient><linearGradient id="paint95_linear_20_2" x1="274.26" x2="333.82" y1="579.55" y2="433.83" gradientUnits="userSpaceOnUse"><stop offset="0" stop-color="#674e12"/><stop offset="1" stop-color="#a27c2c"/></linearGradient><linearGradient id="paint96_linear_20_2" x1="374.57" x2="454.18" y1="318.18" y2="123.4" gradientUnits="userSpaceOnUse"><stop offset="0" stop-color="#674e12"/><stop offset="1" stop-color="#a27c2c"/></linearGradient><linearGradient id="paint97_linear_20_2" x1="311.54" x2="335.85" y1="79.52" y2="20.05" gradientUnits="userSpaceOnUse"><stop offset="0" stop-color="#a27c2c"/><stop offset="1" stop-color="#674e12"/></linearGradient><linearGradient id="paint98_linear_20_2" x1="332.24" x2="437.9" y1="377.42" y2="118.9" gradientUnits="userSpaceOnUse"><stop offset="0" stop-color="#674e12"/><stop offset="1" stop-color="#a27c2c"/></linearGradient><linearGradient id="paint99_linear_20_2" x1="293.01" x2="417.7" y1="431.15" y2="126.09" gradientUnits="userSpaceOnUse"><stop offset="0" stop-color="#674e12"/><stop offset="1" stop-color="#a27c2c"/></linearGradient><linearGradient id="paint100_linear_20_2" x1="356.41" x2="451.5" y1="345.55" y2="112.92" gradientUnits="userSpaceOnUse"><stop offset="0" stop-color="#674e12"/><stop offset="1" stop-color="#a27c2c"/></linearGradient></defs></svg>